# xmcd CD database file
#
# Track frame offsets:
#	150
#	17155
#	41513
#	62229
#	81714
#	101440
#	124743
#	149874
#	167869
#	179141
#	192189
#
# Disc length: 2732 seconds
#
# Revision: 1
# Processed by: cddbd v1.5.2PL0 Copyright (c) Steve Scherf et al.
# Submitted via: CDex 1.70beta2
#
DISCID=a90aaa0b
DTITLE=Stefano Bollani - Falando De Amor
DYEAR=2003
DGENRE=Jazz
TTITLE0=Falando De Amor
TTITLE1=So Tinha De Ser Com
TTITLE2=Angela
TTITLE3=Luiza
TTITLE4=Refrato Em Branco E Preto
TTITLE5=Agua De Beber
TTITLE6=Tema Do Amor Por Gabriela
TTITLE7=Cancao Do Amor Demais
TTITLE8=Aguas De Marco
TTITLE9=Pois E
TTITLE10=Samba De Uma Nota So
EXTD=YEAR: 2003
EXTT0=
EXTT1=
EXTT2=
EXTT3=
EXTT4=
EXTT5=
EXTT6=
EXTT7=
EXTT8=
EXTT9=
EXTT10=
PLAYORDER=
